General
      Complete name : Patton.1970.BRRip.H264.AAC.5.1ch.Gopo.mp4
      Format : MPEG-4
      Format profile : Base Media
      Codec ID : isom
      File size : 2.80 GiB
      Duration : 2h 51mn
      Overall bit rate : 2 332 Kbps
      Encoded date : UTC 2010-02-03 11:32:56
      Tagged date : UTC 2010-02-03 11:32:56
   Video #1
      ID : 1
      Format : AVC
      Format/Info : Advanced Video Codec
      Format profile : High@L4.1
      Format settings, CABAC : Yes
      Format settings, ReFrames : 5 frames
      Codec ID : avc1
      Codec ID/Info : Advanced Video Coding
      Duration : 2h 51mn
      Bit rate mode : Variable
      Bit rate : 2 077 Kbps
      Maximum bit rate : 9 806 Kbps
      Width : 1 280 pixels
      Height : 580 pixels
      Display aspect ratio : 2.2:1
      Frame rate mode : Constant
      Frame rate : 23.976 fps
      Resolution : 24 bits
      Colorimetry : 4:2:0
      Scan type : Progressive
      Bits/(Pixel*Frame) : 0.117
      Stream size : 2.49 GiB (89%)
      Writing library : x264 core 84 r1416 fcf70c2
      Encoding settings : cabac=1 / ref=5 / deblock=1:0:0 / analyse=0x3:0x113 / me=hex / subme=7 / psy=1 / psy_rd=1.0:0.0 / mixed_ref=1 / me_range=16 / chroma_me=1 / trellis=0 / 8x8dct=1 / cqm=0 / deadzone=21,11 / fast_pskip=1 / chroma_qp_offset=-2 / threads=1 / sliced_threads=0 / nr=0 / decimate=1 / mbaff=0 / constrained_intra=0 / bframes=3 / b_pyramid=0 / b_adapt=1 / b_bias=0 / direct=1 / wpredb=1 / wpredp=2 / keyint=250 / keyint_min=25 / scenecut=40 / intra_refresh=0 / rc_lookahead=40 / rc=2pass / mbtree=1 / bitrate=2077 / ratetol=1.0 / qcomp=0.60 / qpmin=10 / qpmax=51 / qpstep=4 / cplxblur=20.0 / qblur=0.5 / vbv_maxrate=31250 / vbv_bufsize=31250 / ip_ratio=1.40 / aq=1:1.00
      Encoded date : UTC 2010-02-01 16:07:28
      Tagged date : UTC 2010-02-03 11:37:35
   Audio #2
      ID : 2
      Format : AAC
      Format/Info : Advanced Audio Codec
      Format version : Version 4
      Format profile : LC
      Format settings, SBR : No
      Codec ID : 40
      Duration : 2h 51mn
      Bit rate mode : Variable
      Bit rate : 252 Kbps
      Maximum bit rate : 362 Kbps
      Channel(s) : 6 channels
      Channel positions : Front: L C R, Rear: L R, LFE
      Sampling rate : 48.0 KHz
      Resolution : 16 bits
      Stream size : 310 MiB (11%)
      Encoded date : UTC 2010-02-03 11:37:15
      Tagged date : UTC 2010-02-03 11:37:35
	Sample : YES
	Subtitle : English,Romanian

PLOT

"Patton" tells the tale of General George S. Patton, famous tank commander of World War II. The film begins with patton's career in North Africa and progresses through the invasion of Germany and the fall of the Third Reich. Side plots also speak of Patton's numerous faults such his temper and habit towards insubordination. Faults which would, eventually, lead to his being relieved as Occupation Commander of Germany.
Director: Franklin J. Schaffner
CASTING 
     
      George C. Scott	... 	Gen. George S. Patton Jr.
	Karl Malden	... 	Gen. Omar N. Bradley
	Stephen Young	... 	Capt. Chester B. Hansen
	Michael Strong	... 	Brig. Gen. Hobart Carver
	Carey Loftin	... 	Gen. Bradley's driver (as Cary Loftin)
	Albert Dumortier	... 	Moroccan Minister
	Frank Latimore	... 	Lt. Col. Henry Davenport
	Morgan Paull	... 	Capt. Richard N. Jenson
	Karl Michael Vogler	... 	Field Marshal Erwin Rommel
	Bill Hickman	... 	Gen. Patton's driver
	Pat Zurica	... 	1st Lt. Alexander Stiller (as Patrick J. Zurica)
	James Edwards	... 	Sgt. William George Meeks
	Lawrence Dobkin	... 	Col. Gaston Bell
	David Bauer	... 	Lt. Gen. Harry Buford
	John Barrie	... 	Air Vice-Marshal Sir Arthur Coningham

SOURCE: Patton (1970) 720p.BluRay.DTS.x264-ESiR.mkv

Notes: For best performance I suggest you to use KMPlayer(find it with google) for playback
I haven't tested the movies on a PS3 or Xbox or other devices than PC because I don't own one of them but feel free to test them if you have the oportunity.
